<?xml version="1.0" encoding="UTF-8" standalone="no" ?>
<!DOCTYPE svg PUBLIC "-//W3C//DTD SVG 1.1//EN" "http://www.w3.org/Graphics/SVG/1.1/DTD/svg11.dtd">
<svg xmlns="http://www.w3.org/2000/svg" xmlns:xlink="http://www.w3.org/1999/xlink" version="1.1" width="1080" height="1080" viewBox="0 0 1080 1080" xml:space="preserve">
<desc>Created with Fabric.js 5.2.4</desc>
<defs>
</defs>
<g transform="matrix(1 0 0 1 540 540)" id="691d3d1c-e187-4a9a-a9c4-3a87f544eed0"  >
<rect style="stroke: none; stroke-width: 1; stroke-dasharray: none; stroke-linecap: butt; stroke-dashoffset: 0; stroke-linejoin: miter; stroke-miterlimit: 4; fill: rgb(255,255,255); fill-rule: nonzero; opacity: 1; visibility: hidden;" vector-effect="non-scaling-stroke"  x="-540" y="-540" rx="0" ry="0" width="1080" height="1080" />
</g>
<g transform="matrix(1 0 0 1 540 540)" id="7c4f6de8-bb55-421f-a36a-5555dd66aded"  >
</g>
<g transform="matrix(1 0 0 1 540 540)" id="f65c0a95-2169-4a31-b360-45dc5823f78e"  >
<path style="stroke: rgb(0,0,0); stroke-width: 0; stroke-dasharray: none; stroke-linecap: butt; stroke-dashoffset: 0; stroke-linejoin: miter; stroke-miterlimit: 4; fill: rgb(255,255,255); fill-rule: nonzero; opacity: 1;" vector-effect="non-scaling-stroke"  transform=" translate(-256, -224.05)" d="M 233.4 105.4 C 245.9 92.9 266.2 92.9 278.7 105.4 L 470.7 297.4 C 483.2 309.9 483.2 330.2 470.7 342.7 C 458.2 355.2 437.9 355.2 425.4 342.7 L 256 173.3 L 86.6 342.6 C 74.1 355.1 53.8 355.1 41.3 342.6 C 28.799999999999997 330.1 28.799999999999997 309.8 41.3 297.3 L 233.3 105.30000000000001 z" stroke-linecap="round" />
</g>
</svg>