<?xml version="1.0" encoding="UTF-8" standalone="no" ?>
<!DOCTYPE svg PUBLIC "-//W3C//DTD SVG 1.1//EN" "http://www.w3.org/Graphics/SVG/1.1/DTD/svg11.dtd">
<svg xmlns="http://www.w3.org/2000/svg" xmlns:xlink="http://www.w3.org/1999/xlink" version="1.1" width="1080" height="1080" viewBox="0 0 1080 1080" xml:space="preserve">
<desc>Created with Fabric.js 5.2.4</desc>
<defs>
</defs>
<g transform="matrix(1 0 0 1 540 540)" id="c92c8e98-42ed-4677-8f73-ed819de609e1"  >
<rect style="stroke: none; stroke-width: 1; stroke-dasharray: none; stroke-linecap: butt; stroke-dashoffset: 0; stroke-linejoin: miter; stroke-miterlimit: 4; fill: rgb(255,255,255); fill-rule: nonzero; opacity: 1; visibility: hidden;" vector-effect="non-scaling-stroke"  x="-540" y="-540" rx="0" ry="0" width="1080" height="1080" />
</g>
<g transform="matrix(1 0 0 1 540 540)" id="215c9f48-452d-44bd-90c9-0cc41e7ed100"  >
</g>
<g transform="matrix(1 0 0 1 540 540)" id="6425cb49-783e-43bf-b779-2d3393eb8723"  >
<path style="stroke: rgb(0,0,0); stroke-width: 0; stroke-dasharray: none; stroke-linecap: butt; stroke-dashoffset: 0; stroke-linejoin: miter; stroke-miterlimit: 4; fill: rgb(255,255,255); fill-rule: nonzero; opacity: 1;" vector-effect="non-scaling-stroke"  transform=" translate(-128.05, -256)" d="M 9.4 233.4 C -3.0999999999999996 245.9 -3.0999999999999996 266.2 9.4 278.7 L 201.4 470.7 C 213.9 483.2 234.2 483.2 246.7 470.7 C 259.2 458.2 259.2 437.9 246.7 425.4 L 77.3 256 L 246.6 86.6 C 259.1 74.1 259.1 53.8 246.6 41.3 C 234.09999999999997 28.799999999999997 213.8 28.799999999999997 201.3 41.3 L 9.300000000000011 233.3 z" stroke-linecap="round" />
</g>
</svg>